<?xml version="1.0" standalone="no"?>
<!DOCTYPE svg PUBLIC "-//W3C//DTD SVG 20010904//EN"
 "http://www.w3.org/TR/2001/REC-SVG-20010904/DTD/svg10.dtd">
<svg version="1.0" xmlns="http://www.w3.org/2000/svg"
 width="1024.000000pt" height="1024.000000pt" viewBox="0 0 1024.000000 1024.000000"
 preserveAspectRatio="xMidYMid meet">

<g transform="translate(0.000000,1024.000000) scale(0.100000,-0.100000)"
fill="#fff" stroke="none">
<path d="M4953 7876 c-100 -19 -165 -42 -266 -92 -193 -96 -338 -246 -431
-446 -83 -176 -96 -273 -96 -721 l0 -328 -77 -36 c-43 -19 -109 -48 -148 -63
-147 -59 -583 -242 -641 -269 -59 -28 -66 -36 -191 -208 -300 -413 -373 -516
-373 -524 0 -12 19 -21 275 -128 l210 -87 5 -499 5 -499 25 -13 c14 -7 176
-76 360 -152 329 -136 805 -336 1268 -532 129 -55 238 -99 243 -99 5 0 150 59
322 131 171 72 584 246 917 385 333 140 616 260 630 267 l25 13 3 488 c1 328
6 493 13 502 6 7 114 57 241 111 127 54 233 104 235 110 3 7 -24 52 -60 100
-144 196 -397 557 -397 568 0 6 66 103 147 216 315 438 317 441 298 455 -9 7
-76 37 -148 68 -529 222 -801 336 -992 415 -121 51 -237 99 -257 108 -35 15
-39 21 -64 102 -96 314 -347 554 -669 641 -103 28 -308 36 -412 16z m-196
-601 c93 -28 173 -107 209 -207 8 -24 18 -91 21 -149 l6 -107 -54 -34 c-98
-64 -113 -100 -65 -162 32 -43 163 -131 218 -148 39 -11 44 -10 115 26 96 50
193 140 193 180 0 32 -50 84 -108 112 l-34 16 4 122 c6 133 16 168 74 247 22
30 55 58 96 80 57 31 71 34 143 34 67 0 89 -4 137 -28 67 -33 121 -90 157
-166 26 -56 26 -57 29 -336 l3 -280 -32 -48 c-54 -82 -228 -214 -342 -259 -29
-12 -56 -24 -60 -28 -4 -4 23 -30 61 -58 83 -62 129 -111 192 -208 41 -63 110
-223 110 -256 0 -6 -18 8 -39 30 -48 49 -95 61 -150 40 -32 -13 -42 -13 -62
-2 -13 7 -44 13 -67 14 -36 0 -49 -5 -72 -30 -46 -49 -55 -90 -55 -252 l0
-147 -132 -55 -132 -55 -133 57 c-123 53 -133 59 -130 82 10 87 4 240 -11 292
-29 97 -95 130 -183 93 -32 -13 -39 -13 -64 0 -16 8 -42 15 -57 15 -37 0 -90
-33 -105 -65 -9 -20 -28 -35 -28 -22 0 18 57 162 85 216 51 97 185 238 281
298 17 10 16 12 -16 24 -114 41 -297 164 -369 248 l-46 54 -3 251 c-2 169 0
269 8 306 45 207 220 321 407 265z m464 -555 c33 -17 62 -37 65 -45 7 -17 -30
-51 -103 -95 -47 -29 -55 -31 -85 -21 -42 14 -150 99 -146 113 3 7 31 27 64
45 77 43 124 43 205 3z m-637 -1125 c26 -19 69 -19 107 1 17 8 37 13 44 10 22
-8 35 -75 35 -185 l0 -103 -24 6 c-33 8 -359 147 -371 158 -14 13 9 25 62 33
34 5 46 12 58 35 30 58 55 71 89 45z m970 0 c26 -19 69 -19 107 1 29 14 32 14
51 -3 11 -10 26 -30 34 -44 10 -21 23 -28 57 -33 24 -4 52 -13 62 -20 17 -12
14 -15 -31 -35 -114 -51 -333 -141 -343 -141 -26 0 -27 205 0 263 14 30 34 34
63 12z"/>
<path d="M4614 6971 c-36 -22 -58 -75 -48 -115 3 -14 20 -37 36 -51 68 -58
168 -13 168 75 0 34 -6 48 -34 76 -40 40 -75 44 -122 15z"/>
<path d="M5504 6956 c-38 -38 -44 -77 -19 -126 19 -37 43 -50 95 -50 95 0 132
110 60 181 -41 42 -91 40 -136 -5z"/>
</g>
</svg>
